<?xml version="1.0"?>
<svg xmlns="http://www.w3.org/2000/svg" xmlns:xlink="http://www.w3.org/1999/xlink" xmlns:svgjs="http://svgjs.com/svgjs" version="1.1" width="512" height="512" x="0" y="0" viewBox="0 0 32 32" style="enable-background:new 0 0 512 512" xml:space="preserve" class=""><circle r="16" cx="16" cy="16" fill="#000000" shape="circle" transform="matrix(1,0,0,1,0,0)"/><g transform="matrix(0.9700000000000001,0,0,0.9699999999999999,0.4799999999999969,0.4800000000000004)">
<g xmlns="http://www.w3.org/2000/svg">
	<g id="steering_x5F_wheel">
		<path style="" d="M16,0C7.164,0,0,7.164,0,16s7.164,16,16,16s16-7.164,16-16S24.836,0,16,0z M16,4    c5.207,0,9.605,3.354,11.266,8H4.734C6.395,7.354,10.793,4,16,4z M16,18c-1.105,0-2-0.895-2-2s0.895-2,2-2s2,0.895,2,2    S17.105,18,16,18z M4,16c5.465,0,9.891,5.266,9.984,11.797C8.328,26.828,4,21.926,4,16z M18.016,27.797    C18.109,21.266,22.535,16,28,16C28,21.926,23.672,26.828,18.016,27.797z" fill="#ffffff" data-original="#030104" class=""/>
	</g>
</g>
<g xmlns="http://www.w3.org/2000/svg">
</g>
<g xmlns="http://www.w3.org/2000/svg">
</g>
<g xmlns="http://www.w3.org/2000/svg">
</g>
<g xmlns="http://www.w3.org/2000/svg">
</g>
<g xmlns="http://www.w3.org/2000/svg">
</g>
<g xmlns="http://www.w3.org/2000/svg">
</g>
<g xmlns="http://www.w3.org/2000/svg">
</g>
<g xmlns="http://www.w3.org/2000/svg">
</g>
<g xmlns="http://www.w3.org/2000/svg">
</g>
<g xmlns="http://www.w3.org/2000/svg">
</g>
<g xmlns="http://www.w3.org/2000/svg">
</g>
<g xmlns="http://www.w3.org/2000/svg">
</g>
<g xmlns="http://www.w3.org/2000/svg">
</g>
<g xmlns="http://www.w3.org/2000/svg">
</g>
<g xmlns="http://www.w3.org/2000/svg">
</g>
</g></svg>
